<?xml version="1.0" encoding="utf-8"?>
<!-- Generator: Adobe Illustrator 22.1.0, SVG Export Plug-In . SVG Version: 6.00 Build 0)  -->
<svg version="1.1" id="Layer_1" xmlns="http://www.w3.org/2000/svg" xmlns:xlink="http://www.w3.org/1999/xlink" x="0px" y="0px"
	 viewBox="0 0 205.1 205.1" style="enable-background:new 0 0 205.1 205.1;" xml:space="preserve">
<style type="text/css">
	.st0{fill:none;stroke:#1E5DFA;stroke-width:15;stroke-miterlimit:10;}
	.st1{fill:#1E5DFA;}
</style>
<title>Asset 2</title>
<g id="Layer_2_1_">
	<g id="Layer_1-2">
		<circle class="st0" cx="102.6" cy="102.6" r="95.1"/>
		<path class="st1" d="M43.4,96.2c0,0.5,0,0.9,0,1.4c0.1,0.9,0.1,1.7,0.1,2.6c0,0.2,0,0.5,0,0.8h0.1l0.3,0.1
			c1.6,0.5,3.4,0.7,5.1,0.5c0.6,0,1.2-0.1,1.8-0.1c0.3,0,0.7-0.1,1-0.2s0.6-0.2,0.9-0.2c0.3-0.1,0.7-0.1,1-0.3
			c0.3-0.1,0.5-0.2,0.7-0.3c0-0.2,0-0.4,0-0.6c0-0.3,0-0.6,0-0.9c0-0.2,0-0.3,0-0.5s0-0.4,0-0.6c0-0.5,0-1,0-1.5
			c0-1-0.1-4.5-0.1-5.4c0-0.5,0-1,0-1.5s0-0.9,0-1.4c0-0.7-0.4-14.5-0.4-14.5l3.4,7.9c0.6,1.2,1.3,2.5,2,3.7
			c0.4,0.8,0.8,1.6,1.1,2.4c0.2,0.4,0.4,0.9,0.6,1.3c0.6,1.1,1.2,2.2,2,3.6c0.1,0.4,0.4,0.7,0.7,0.9c0.7-0.1,1.4-0.1,2-0.2
			s1.3-0.2,1.9-0.3c0.9-0.2,1.8-0.6,2.6-1l0.3-0.1c0.8-0.4,1.6-0.8,2.3-1.4c0.1-0.1,0.2-0.2,0.2-0.3c-0.1-0.9,0-1.7,0.1-2.6
			c0-0.7,0-1.3,0.1-2c0-0.3,0-0.5,0.1-0.8c0.1-0.4,0.1-0.9,0.1-1.3c0-0.5,0-1,0.1-1.5c0-0.2,0-0.4,0.1-0.6c0.1-0.9,0.1-1.7,0.2-2.7
			c0.1-1.6,0.3-3.3,0.4-5c0-0.2,0-0.4,0-0.6c0-0.5,0.1-0.9,0.2-1.3l0.8-2.5l0.9,2.4c0.1,0.1,0.1,0.3,0.1,0.4s0.1,0.3,0.1,0.4
			c0.3,0.6,0.6,1.3,0.8,1.9c0.1,0.3,0.2,0.7,0.3,1s0.2,0.5,0.3,0.7s0.2,0.7,0.4,1s0.3,0.8,0.5,1.2c0.1,0.4,0.3,0.7,0.4,1.1
			c0.3,0.8,0.6,1.6,0.9,2.4c0.5,1.4,1,2.8,1.6,4.2c0.3,0.6,0.5,1.2,0.7,1.8l0.3,0.7c0.4,0.8,0.8,1.7,1.2,2.5l0.3,0.6
			c0.2,0.6,0.5,1.1,0.9,1.6l0.6,0.1c0.2,0,0.5,0,0.8,0l1-0.1l1-0.1l0.4-0.1c0.4-0.1,0.9-0.2,1.4-0.2c0.7-0.1,1.5-0.2,2.2-0.5
			c0.4-0.1,0.7-0.2,1.1-0.3c0.4-0.1,0.8-0.2,1.2-0.4c0.4-0.2,0.7-0.4,1-0.7v-0.1c-0.4-1.1-0.8-2.2-1.2-3.3l-0.3-0.8
			c-0.2-0.4-0.3-0.8-0.5-1.2c-0.3-0.7-0.6-1.3-0.8-2s-0.6-1.5-0.8-2.2v-0.1c-0.2-0.6-0.5-1.3-0.7-1.9v-0.1l0,0
			c-0.1-0.3-0.2-0.5-0.4-0.7c-0.2-0.4-0.7-2.1-0.9-2.5c-0.1-0.2-0.2-0.4-0.3-0.7s-0.2-0.5-0.3-0.8c-0.2-0.4-0.3-0.8-0.4-1.2
			c-0.2-0.5-0.3-0.9-0.5-1.4S88,70.6,87.8,70s-0.5-1.4-0.7-2.2v-0.1c-0.6-1.3-1.1-2.7-1.5-4v-0.1c-0.2-0.5-0.3-1-0.5-1.4
			c-0.7-1.7-1.3-3.5-2-5.2l-0.7-1.9l-0.4-1c-0.3-0.8-0.7-1.7-1-2.5c-0.1-0.2-0.2-0.4-0.4-0.5c-0.9-0.2-1.9-0.3-2.8-0.2
			c-0.6,0.1-1.3,0.1-1.9,0.2h-0.4c-0.3,0-0.5,0-0.8,0c-0.1,0-0.1,0-0.2,0c-0.4,0-0.8,0.1-1.3,0.2s-1.2,0.2-1.8,0.3l-0.1,0.1
			c-0.2,0.1-0.5,0.2-0.7,0.2l0,0l-1,0.2h-0.2c-0.1,0.3-0.1,0.6-0.2,0.9c-0.1,0.4-0.2,0.9-0.3,1.3c-0.9,3.8-1.7,7.5-2.3,11.2
			c-0.2,0.9-0.5,1.9-0.7,2.8l-1,3.7l-1.1-1.9c-0.4-0.7-0.8-1.5-1.1-2.2c-0.2-0.5-0.5-1-0.7-1.5L61.3,65c-0.4-0.8-0.8-1.6-1.1-2.5
			l-0.5-1.2c-0.6-1.1-1.2-2.3-1.7-3.5c-0.4-0.8-0.7-1.6-1.2-2.4l-0.1-0.2c-0.1-0.3-0.2-0.6-0.4-0.6c-0.5-0.2-1.1-0.3-1.7-0.3h-0.4
			c-0.6,0.1-1.2,0.1-1.8,0c-0.3,0-0.7,0-1,0l-1,0.1l-1.8,0.2c-0.7,0.1-1.2,0.2-1.7,0.3L46.7,55c-0.3,0.1-0.7,0.2-1,0.3
			c0,0.2,0,0.4,0,0.5c-0.1,0.7-0.1,1.3-0.1,2V58c0,0.9-0.1,1.7-0.2,2.6c0,0.6-0.1,1.2-0.1,1.8c-0.1,0.8-0.1,1.5-0.2,2.3
			c0,1.2-0.1,2.4-0.2,3.5s-0.2,2.5-0.2,3.8c0,0.2,0,0.4-0.1,0.7c0,0.3-0.1,0.7-0.1,1c0,1-0.1,2.1-0.1,3.2l-0.1,1.2
			c-0.1,3-0.2,5.8-0.2,8.5c0,0.7,0,1.5,0,2.2s0,1.8,0,2.7v0.1C43.2,92.3,43.3,95.5,43.4,96.2z"/>
		<path class="st1" d="M112.8,91.7c0.4,0.1,0.7,0.2,1.1,0.3c0.7,0.2,1.4,0.4,2.1,0.5c0.5,0.1,0.9,0.1,1.3,0.2l0.4,0.1l1,0.1l1,0.1
			c0.3,0,0.5,0,0.8,0l0.5,0c0.4-0.5,0.7-1,0.9-1.6c0.1-0.2,0.2-0.4,0.3-0.6c0.3-0.8,0.8-1.7,1.2-2.5l0.3-0.7
			c0.1-0.6,0.4-1.3,0.7-1.8c0.5-1.3,1-2.8,1.6-4.2c0.3-0.9,0.6-1.6,0.9-2.4c0.2-0.4,0.3-0.7,0.4-1.1s0.3-0.8,0.4-1.2
			c0.2-0.3,0.3-0.7,0.4-1s0.2-0.5,0.3-0.7s0.2-0.7,0.4-1c0.2-0.7,0.5-1.3,0.8-1.9c0-0.1,0.1-0.2,0.1-0.4l0.1-0.4l0.9-2.4l0.8,2.5
			c0.1,0.4,0.2,0.9,0.2,1.3c0,0.2,0,0.4,0,0.6c0.1,1.7,0.2,3.3,0.4,5c0.1,0.9,0.2,1.8,0.2,2.7c0,0.2,0,0.4,0.1,0.6
			c0.1,0.5,0.1,1,0.1,1.5c-0.1,0.4-0.1,0.9,0,1.3c0,0.3,0.1,0.5,0.1,0.8c0.1,0.7,0.1,1.3,0,2c0.1,0.9,0.2,1.7,0.1,2.6
			c0,0.1,0.1,0.2,0.1,0.3c0.7,0.5,1.5,1,2.3,1.4l0.3,0.1c0.8,0.4,1.7,0.8,2.6,1c0.6,0.1,1.3,0.2,1.9,0.3s1.3,0.2,2,0.2
			c0.3-0.2,0.5-0.6,0.7-0.9c0.8-1.3,1.4-2.4,2-3.6l0.6-1.3c0.4-0.8,0.8-1.6,1.1-2.4c0.6-1.3,1.3-2.5,2-3.7l3.4-7.9
			c0,0-0.4,13.8-0.4,14.5c0,0.4,0,0.9,0,1.4s0,1,0,1.5c0,1-0.1,4.5-0.1,5.4c0,0.5,0,1,0,1.5c0,0.2,0,0.4,0,0.6s0,0.3,0,0.5
			c0,0.3,0,0.6,0,0.9s0,0.4,0,0.6c0.2,0.2,0.4,0.3,0.7,0.3c0.3,0.1,0.7,0.2,1,0.3c0.3,0.1,0.6,0.1,0.9,0.2c0.3,0.1,0.7,0.1,1,0.2
			c0.6,0.1,1.2,0.1,1.8,0.1c1.7,0.2,3.4,0.1,5.1-0.5l0.3-0.1h0.1v-0.8c0-0.9,0-1.7,0.1-2.6c0-0.4,0-0.9,0-1.4c0-0.6,0.2-3.8,0.1-4.4
			v-0.1c0.1-0.9,0-1.8,0-2.7s0-1.5,0-2.2c0-2.7,0-5.6-0.2-8.5l-0.1-1.3c-0.1-1.1-0.1-2.2-0.1-3.2c0-0.3,0-0.7-0.1-1
			c0-0.3,0-0.5-0.1-0.7c0-1.3-0.1-2.6-0.2-3.8s-0.2-2.3-0.2-3.5c0-0.8-0.1-1.5-0.1-2.3c-0.1-0.6-0.1-1.2-0.1-1.8
			c-0.1-0.9-0.2-1.7-0.2-2.6v-0.5c0-0.7,0-1.3-0.1-2c0-0.2,0-0.4,0-0.5c-0.3-0.1-0.6-0.2-0.9-0.3l-0.2-0.1c-0.5-0.1-1-0.2-1.7-0.3
			s-1.2-0.2-1.8-0.2l-1-0.1c-0.3-0.1-0.7-0.1-1,0c-0.6,0.1-1.2,0.1-1.8,0H152c-0.6,0-1.2,0-1.7,0.3c-0.1,0.1-0.3,0.4-0.4,0.6
			l-0.1,0.2c-0.4,0.8-0.8,1.6-1.1,2.4c-0.5,1.1-1.1,2.3-1.7,3.5l-0.5,1.2c-0.4,0.9-0.7,1.7-1.1,2.5c-0.2,0.5-0.4,0.9-0.7,1.4
			l-0.8,1.5c-0.4,0.8-0.7,1.6-1.1,2.2l-1.1,1.9l-1-3.7c-0.2-0.9-0.5-1.9-0.7-2.8c-0.7-3.7-1.4-7.5-2.3-11.2
			c-0.1-0.4-0.2-0.9-0.3-1.3s-0.1-0.6-0.2-0.9H137l-1-0.2l0,0c-0.2,0-0.5-0.1-0.7-0.2l-0.1-0.1c-0.6-0.1-1.2-0.2-1.8-0.3
			s-0.9-0.1-1.4-0.2c-0.1,0-0.1,0-0.2,0c-0.3,0-0.5,0-0.8,0h-0.4c-0.6,0-1.3-0.1-1.9-0.2c-0.9-0.1-1.9,0-2.8,0.2
			c-0.2,0-0.3,0.3-0.4,0.5c-0.3,0.9-0.7,1.7-1,2.5l-0.4,1l-0.7,1.9c-0.6,1.7-1.3,3.5-2,5.2c-0.2,0.5-0.3,1-0.5,1.4v0.1
			c-0.4,1.4-0.9,2.7-1.5,4.1v0.1c-0.2,0.7-0.5,1.4-0.7,2.2c-0.2,0.6-0.4,1.2-0.7,1.8c-0.2,0.4-0.4,0.9-0.5,1.4s-0.3,0.8-0.4,1.2
			s-0.2,0.6-0.3,0.8c-0.3,0.6-0.6,1.3-0.8,2c-0.1,0.4-0.2,0.8-0.4,1.2c-0.1,0.2-0.2,0.5-0.3,0.7l0,0V79c-0.2,0.6-0.5,1.3-0.7,1.9V81
			c-0.3,0.7-0.6,1.5-0.8,2.2s-0.5,1.3-0.8,2c-0.2,0.4-0.3,0.8-0.5,1.2l-0.3,0.8c-0.4,1.1-0.8,2.2-1.2,3.3v0.1c0.3,0.3,0.6,0.5,1,0.7
			C112.1,91.6,112.4,91.7,112.8,91.7z"/>
		<path class="st1" d="M169.5,112.9c-1-0.6-2.2-0.9-3.4-0.9H147v1.8c0,5.8,4.7,10.6,10.6,10.6l0,0c-13.3,30.6-48.9,44.6-79.4,31.3
			c-6.9-3-13.1-7.2-18.4-12.5c-4.8-4.7-12.1-5.7-17.9-2.4l0,0c22.4,33.4,67.6,42.3,100.9,19.9c14.4-9.7,24.9-24.1,29.6-40.8
			C173.1,117.2,171.9,114.3,169.5,112.9z"/>
	</g>
</g>
</svg>
